<svg xmlns="http://www.w3.org/2000/svg" width="30" height="30" viewBox="0 0 30 30">
  <g id="Group_38" data-name="Group 38" transform="translate(-1395 -275)">
    <circle id="Ellipse_1" data-name="Ellipse 1" cx="15" cy="15" r="15" transform="translate(1395 275)" fill="#f1f1f1"/>
    <g id="Iconly_Light-outline_Notification" data-name="Iconly/Light-outline/Notification" transform="translate(1401.299 281.94)">
      <g id="Notification" transform="translate(3.701 2.06)">
        <path id="Notification-2" data-name="Notification" d="M4.732,11.985A2.045,2.045,0,0,1,3.362,11.2a.428.428,0,0,1,.064-.588.4.4,0,0,1,.57.066,1.236,1.236,0,0,0,1.759.207,1.135,1.135,0,0,0,.209-.208.4.4,0,0,1,.57-.064A.428.428,0,0,1,6.6,11.2a1.954,1.954,0,0,1-.351.35,2.021,2.021,0,0,1-1.513.433ZM2.361,9.508A2.862,2.862,0,0,1,.545,8.593,2.467,2.467,0,0,1,0,7V6.855A2.491,2.491,0,0,1,.394,5.628l.039-.052A2.332,2.332,0,0,0,.979,4.484L.97,4.52l0-.321.007-.357c.005-.157.014-.3.025-.434A3.608,3.608,0,0,1,2.315.976,4.144,4.144,0,0,1,4.979,0h.042A4.149,4.149,0,0,1,7.686.976,3.633,3.633,0,0,1,9,3.411c.01.119.015.227.016.388v.4c0,.066,0,.125,0,.185l.005.118.026.112a2.357,2.357,0,0,0,.427.859l.088.106.037.048A2.459,2.459,0,0,1,10,6.875v.242a2.466,2.466,0,0,1-.568,1.5,2.794,2.794,0,0,1-1.792.892A24.016,24.016,0,0,1,5,9.653,24,24,0,0,1,2.361,9.508ZM1.051,6.12h0L1.006,6.2a1.633,1.633,0,0,0-.184.563l-.01.114v.131a1.615,1.615,0,0,0,.338,1.029,2.039,2.039,0,0,0,1.293.639A23.333,23.333,0,0,0,5,8.816a23.383,23.383,0,0,0,2.563-.141,2,2,0,0,0,1.269-.618,1.62,1.62,0,0,0,.361-1.064v-.1A1.571,1.571,0,0,0,8.934,6.1l.009.015-.081-.1a3.2,3.2,0,0,1-.6-1.2l-.038-.166L8.22,4.6c-.006-.088-.01-.16-.011-.24l0-.543c0-.137,0-.229-.013-.328A3.141,3.141,0,0,0,5.021.837H4.979A3.13,3.13,0,0,0,1.812,3.484c-.006.073-.012.153-.017.253l-.009.28,0,.551-.008.085a3.18,3.18,0,0,1-.718,1.461h0Z" transform="translate(0)" fill="#707070"/>
      </g>
    </g>
  </g>
</svg>
