<svg xmlns="http://www.w3.org/2000/svg" width="30" height="30" viewBox="0 0 30 30">
  <g id="Group_40" data-name="Group 40" transform="translate(-1344 -230)">
    <circle id="Ellipse_1" data-name="Ellipse 1" cx="15" cy="15" r="15" transform="translate(1344 230)" fill="#f1f1f1"/>
    <g id="Iconly_Light-outline_Send" data-name="Iconly/Light-outline/Send" transform="translate(1350.751 237.585)">
      <g id="Send" transform="translate(2.249 2.249)">
        <path id="Send-2" data-name="Send" d="M7.953,12A1.157,1.157,0,0,1,7,11.51l-.054-.082L4.55,7.456.565,5a1.19,1.19,0,0,1,.2-2.122l.093-.03,9.634-2.8A1.2,1.2,0,0,1,10.822,0a1.188,1.188,0,0,1,1.15,1.441l-.022.086L9.091,11.152A1.179,1.179,0,0,1,7.953,12Zm.419-8.848a.457.457,0,0,1,.273.09l.052.044a.465.465,0,0,1,.047.6L8.7,3.939,5.467,7.192l2.27,3.759a.253.253,0,0,0,.22.126.257.257,0,0,0,.23-.141l.019-.047,2.858-9.624a.264.264,0,0,0-.041-.235.26.26,0,0,0-.207-.106H10.79l-.045.009-9.634,2.8a.258.258,0,0,0-.181.192.266.266,0,0,0,.077.257l.04.03L4.817,6.537,8.045,3.288A.46.46,0,0,1,8.373,3.152Z" transform="translate(0 0)" fill="#707070"/>
      </g>
    </g>
  </g>
</svg>
